<svg id="Layer_1" data-name="Layer 1" xmlns="http://www.w3.org/2000/svg" preserveAspectRatio="none" viewBox="0 0 1002.3 341.9">
  <defs>
    <style>
      .cls-1 {
        fill: #003;
      }

      .cls-2 {
        fill: none;
      }

      .cls-2, .cls-3, .cls-4 {
        stroke: #fff;
        stroke-width: 4px;
      }

      .cls-2, .cls-3 {
        stroke-miterlimit: 10;
      }

      .cls-3, .cls-4 {
        fill: #69f;
      }

      .cls-4 {
        stroke-linecap: round;
        stroke-linejoin: round;
      }
    </style>
  </defs>
  <title>fd6f76ac-81d8-4797-8c56-a3589cfb1b3c</title>
  <g>
    <g>
      <path class="cls-1" d="M80.3,172.5l6.2-9.4q44.3-71.7,95.4-116.4T281.7,2q37.3,0,61,16.5c15.7,11-35.7,68.7-48.1,58.7q-13.2-9.7-20.9-9.7-27.5,0-91.9,68.7T104.1,290.8q-4,24.8-17.9,34.7t-37.7,9.9q-25.3,0-35.9-23.2T2,236.5Q2,215,3.5,178.4,4.9,143.9,11.9,94q1.8-13,2.6-20.4Q17.7,44.8,22,34T41.5,13.8a63.8,63.8,0,0,1,34-9.4q19.8,0,30,9.1t10.3,20.1q0,13.9-16.5,57.5a208.2,208.2,0,0,0-9.9,36Z"/>
      <path class="cls-2" d="M80.3,172.5l6.2-9.4q44.3-71.7,95.4-116.4T281.7,2q37.3,0,61,16.5c15.7,11-35.7,68.7-48.1,58.7q-13.2-9.7-20.9-9.7-27.5,0-91.9,68.7T104.1,290.8q-4,24.8-17.9,34.7t-37.7,9.9q-25.3,0-35.9-23.2T2,236.5Q2,215,3.5,178.4,4.9,143.9,11.9,94q1.8-13,2.6-20.4Q17.7,44.8,22,34T41.5,13.8a63.8,63.8,0,0,1,34-9.4q19.8,0,30,9.1t10.3,20.1q0,13.9-16.5,57.5a208.2,208.2,0,0,0-9.9,36Z"/>
    </g>
    <g>
      <path class="cls-3" d="M309.7,82.8"/>
      <path class="cls-4" d="M990.7,2c-9.6,0-19.7,1.2-28.2,6-12.8,7.2-15.7,22.4-21.4,34.7-10.6,23-25.4,43.6-39.6,64.4-15.9,23.1-32.8,45.4-50.4,67.3q-62.7,78.2-79.2,78.2-12.2,0-14.1-88Q755.9,66,733,50.2T687.3,34.5q-29.4,0-55.1,24t-61.4,84.5q-40.4,67.1-56.8,89.7c-5.9,8.1-16.9,24.2-27.8,22.3a13,13,0,0,1-6.9-3.9c-4.4-4.3-6-11.9-7.6-17.7-3.1-11-5.6-22.2-8.4-33.2-3.8-14.8-8.1-29.4-13.3-43.7a336.3,336.3,0,0,0-22.1-49.2,279.1,279.1,0,0,0-35-49.7c-12-13.6-38.7-34.8-38.6-33.3.4,4.3-.9,8.8-2.3,12.9a83.2,83.2,0,0,1-12.5,22.6c-10.3,13.7-22.2,22.6-29.8,23.1,55.3,43.4,66.7,111.1,72.6,178q1,4.3,2.1,8.6c3.7,14.3,9,28.1,17.1,40.4q19.6,30.1,63.1,30.1,36.5,0,69.6-25.2T614,211q42-70.9,49-70.9,9,0,9.4,73.1.8,80.1,22.9,103.4t58.6,23.3c45.6,0,84.2-35.5,112.6-67.3,22.6-25.4,42.2-53.3,60.4-82,11.3-17.9,22.8-35.7,33.3-54.1s18.1-37.2,25.3-57.4,15.5-41.8,14.7-62.8C1000,10.2,998.4,2,990.7,2Z"/>
    </g>
  </g>
</svg>
